<svg width="20" height="20" viewBox="0 0 20 20" fill="none" xmlns="http://www.w3.org/2000/svg">
    <path d="M2.5,2.5m10.9167,9.66667h-0.658l-0.234,-0.225c0.817,-0.95,1.309,-2.183,1.309,-3.525c0,-2.992,-2.425,-5.417,-5.417,-5.417c-2.992,0,-5.417,2.425,-5.417,5.417c0,2.992,2.425,5.417,5.417,5.417c1.342,0,2.575,-0.492,3.525,-1.309l0.225,0.234v0.658l4.167,4.158l1.241,-1.241l-4.158,-4.167zm-5,0c-2.075,0,-3.75,-1.675,-3.75,-3.75c0,-2.075,1.675,-3.75,3.75,-3.75c2.075,0,3.75,1.675,3.75,3.75c0,2.075,-1.675,3.75,-3.75,3.75z" fill="current"/>
</svg>
